<?xml version="1.0" encoding="utf-8"?>
<!-- Generator: Adobe Illustrator 28.0.0, SVG Export Plug-In . SVG Version: 6.00 Build 0)  -->
<svg version="1.1" id="Layer_1" xmlns="http://www.w3.org/2000/svg" xmlns:xlink="http://www.w3.org/1999/xlink" x="0px" y="0px"
	 viewBox="0 0 1484 1134" style="enable-background:new 0 0 1484 1134;" xml:space="preserve">
<path d="M383.67,441.71c8.18-5.9,14.84-11.19,21.98-15.74c12.96-8.27,26.59-15.31,41.73-18.76c10.3-2.34,19.48,3.87,22.56,14.81
	c0.48,1.7,0.98,3.39,1.8,6.23c2.57-2.26,4.65-3.65,6.18-5.51c12.75-15.49,24.83-31.57,38.22-46.47
	c15.97-17.76,32.85-34.7,49.7-51.65c10.78-10.85,21.88-21.44,33.43-31.46c16.81-14.59,34.07-28.67,51.31-42.75
	c5.92-4.83,12.26-9.19,18.62-13.44c7.65-5.12,14.72-1.44,15.67,8.22c1.35,13.63,0.27,27.15-4.11,40.15
	c-5.3,15.72-10.05,31.77-16.98,46.79c-11.61,25.19-24.61,49.75-37.31,74.42c-6.6,12.81-13.73,25.35-20.83,37.9
	c-2.96,5.23-6.51,10.11-9.67,15.23c-0.85,1.39-1.25,3.05-1.86,4.59c0.4,0.38,0.79,0.76,1.19,1.14c2.95-1.54,6.13-2.76,8.81-4.67
	c18.4-13.07,38.92-21.45,60.61-26.99c7.92-2.02,16.1-3.43,24.24-4.13c10.56-0.91,20.78,1.01,29.55,7.55
	c5.25,3.91,7.82,9.48,8.8,15.89c2.63,17.16-2.93,32.75-10.32,47.52c-10.98,21.96-24.89,42.21-41.04,60.68
	c-17.79,20.34-35.29,41.19-55.07,59.49c-21.13,19.54-44.72,36.44-67.38,54.3c-9.17,7.22-18.7,13.98-28.16,20.84
	c-3.23,2.34-1.86,3.85,0.25,6.03c6.2,6.4,12.52,12.74,18.13,19.65c8.37,10.31,11.61,22.93,14.57,35.56c0.21,0.89,0.38,1.79,0.6,2.68
	c1.91,7.96,2.79,8.64,10.93,7.34c23.64-3.79,47.22-8.04,70.92-11.41c29.51-4.19,59.05-8.23,88.69-11.31
	c27.64-2.88,55.42-4.56,83.15-6.51c15.32-1.08,30.68-1.95,46.03-2.34c12.97-0.33,25.96,0.02,38.94,0.34
	c19.9,0.49,39.8,0.9,59.67,1.93c17.88,0.93,35.71,2.67,53.57,4c10.94,0.81,21.92,1.14,32.82,2.34c11.42,1.26,22.78,3.19,34.13,5.03
	c10.62,1.72,21.33,3.19,31.77,5.7c14.01,3.37,27.94,7.23,41.64,11.68c6.33,2.06,12.23,5.72,17.93,9.28c1.7,1.06,2.81,4.25,2.77,6.44
	c-0.02,1.1-3.09,2.49-4.98,3.16c-8.34,2.96-16.84,1.84-25.45,1.29c-14.79-0.95-29.64-1.33-44.46-1.34c-27.63,0-55.26,0.41-82.89,0.7
	c-20.49,0.21-40.97,0.6-61.46,0.74c-23.2,0.16-46.41-0.17-69.6,0.3c-20.96,0.43-41.91,1.68-62.87,2.52
	c-9.29,0.37-18.59,0.49-27.86,0.99c-14.59,0.79-29.16,1.86-43.75,2.71c-19.06,1.11-38.14,1.88-57.18,3.24
	c-19.58,1.4-39.12,3.37-58.69,5.02c-8.14,0.69-16.3,1.2-24.46,1.79c-0.1,0.66-0.2,1.33-0.3,1.99c2.23,0.59,4.44,1.24,6.69,1.74
	c10.68,2.41,21.62,3.97,31.97,7.38c9.61,3.17,18.98,7.6,27.71,12.74c11,6.47,18.1,17.06,23.3,28.36
	c9.66,21.01,9.99,43.22,5.84,65.59c-4.66,25.14-13.1,49.03-25.18,71.55c-8.89,16.56-18.04,33-27.62,49.17
	c-3.11,5.25-7.71,9.71-12.1,14.07c-1.15,1.14-4.02,0.53-6.11,0.73c-0.17-2.28-1.31-5.18-0.32-6.72c2.31-3.59,5.96-6.3,8.49-9.78
	c13.88-19.02,23.95-40.1,33.02-61.71c3.94-9.4,8.78-18.52,11.76-28.21c4.61-14.98,8.84-30.21,8.44-46.15
	c-0.23-9.13-0.66-18.27-1.32-27.39c-0.76-10.6-6.47-19.2-11.83-27.91c-8.8-14.29-23.62-19.36-38.11-24.71
	c-21.55-7.95-43.87-8.84-66.51-6.38c-10.84,1.18-15.22,4.82-17.94,15.3c-5.26,20.32-10.24,40.72-16.19,60.84
	c-3.15,10.65-7.93,20.84-12.27,31.11c-4.69,11.11-9.65,22.11-14.62,33.1c-13.4,29.66-28.91,58.21-46.4,85.64
	c-10.45,16.38-21.72,32.2-38.93,42.45c-2.5,1.49-5,3.15-7.72,4.1c-12.69,4.44-19.42,0.9-24.84-12.14
	c-7.43-17.9-6.82-36.42-3.3-55.03c4.91-25.96,12.56-51.05,23.72-75.05c8.71-18.73,19-36.45,30.85-53.41
	c14.42-20.64,33.1-36.79,51.86-53.14c12.83-11.18,27.91-17.73,42.75-25.08c2.55-1.26,4.53-3.68,6.77-5.56
	c-2.62-0.6-5.27-1.8-7.86-1.7c-27.77,1.08-55.51,2.85-83.29,3.4c-14.57,0.29-29.16-1.82-43.76-2.18
	c-9.79-0.24-19.73-0.17-29.38,1.28c-19.58,2.94-39,5.78-58.81,1.87c-7.45-1.47-11.58-6.63-15.58-11.97
	c-2.33-3.12-0.28-6.36,4.14-7.64c7-2.03,14.12-3.7,21.01-6.07c6.09-2.09,5.73-3.6,1.7-8.85c-10.17-13.24-15.1-27.8-8.87-44.44
	c0.64-1.71,1.32-3.41,1.92-5.14c0.1-0.29-0.09-0.67-0.36-2.43c-5.26,7.15-9.7,13.67-14.66,19.78c-5.16,6.35-10.61,12.52-16.42,18.27
	c-1.44,1.43-5.24,1.96-7.05,1.07c-1.33-0.66-2.12-4.59-1.54-6.58c5.3-18.08,11.63-35.77,20.6-52.44
	c5.09-9.47,9.47-19.32,14.54-28.81c11.95-22.38,24.22-44.58,36.17-66.96c6.27-11.74,11.87-23.84,18.27-35.51
	c10.35-18.87,20.73-37.73,31.79-56.19c10.21-17.04,21.28-33.55,32.04-50.26c3.66-5.68,7.88-11.03,11.19-16.9
	c5.76-10.2,5.14-21.19,1.72-31.84c-0.6-1.85-5.9-3.51-8.69-3.08c-6.07,0.94-12.16,2.73-17.81,5.17
	c-20.26,8.75-37.79,21.41-51.19,39.07c-3.38,4.46-5.02,10.31-7.1,15.66c-4.52,11.66-8.62,23.48-13.23,35.1
	c-8.89,22.44-19.14,44.24-33.59,63.72c-4.64,6.25-10.21,11.97-16.09,17.09c-5.09,4.43-8.4,3.42-12.3-2.14
	c-6.84-9.77-5.44-20.5-1.9-30.58c3.91-11.13,8.4-22.38,14.66-32.3c8.43-13.35,18.43-25.78,28.43-38.05
	c9.33-11.45,19.82-21.95,29.21-33.36c2.76-3.35,4.24-8.2,5.07-12.6c4.67-24.77,10.36-49.45,13.05-74.45
	c3.6-33.4,5.84-67.04,6.67-100.63c0.64-25.84,0.27-51.95-5.08-77.49c-4.45-21.24-8.93-42.47-20.11-61.67
	c-6.98-11.99-16.28-21.64-27.21-29.62c-8.84-6.46-19.17-6.66-29.91-4.42c-21.93,4.57-34.23,20.47-45.82,37.43
	c-12.33,18.04-21.2,37.85-29.28,58c-8.51,21.23-15.03,43.16-18.86,65.69c-4.9,28.8-9.27,57.71-12.98,86.69
	c-2.09,16.29-2.91,32.8-3.41,49.23c-0.84,27.22-1.76,54.48-1.17,81.7c0.69,31.59,1.28,63.26,6.31,94.61
	c2.43,15.14,4.13,30.4,6.58,45.54c2.74,16.92,5.38,33.9,9.13,50.62c5.71,25.47,12.29,50.74,18.66,76.06c1,3.97,2.01,8.17,7.66,8.65
	c3.11,0.26,3.59,2.89,2.91,5.92c-0.71,3.13-1.22,6.44-1.02,9.62c0.34,5.55-4.04,6.7-7.49,8.01c-3.69,1.4-5.53-1.66-6.62-4.85
	c-0.06-0.17-0.14-0.34-0.18-0.52c-5.75-25.41-11.59-50.79-17.2-76.23c-2.84-12.85-5.65-25.72-7.79-38.69
	c-2.93-17.79-5.22-35.69-7.77-53.55c-1.78-12.46-3.83-24.89-5.21-37.39c-1.51-13.63-2.81-27.31-3.43-41
	c-1.09-24.13-2.73-48.32-2.06-72.43c1-36.36,3.43-72.69,5.97-108.98c1.29-18.38,3.23-36.83,6.51-54.94
	c4.07-22.42,9.56-44.61,14.99-66.76c2.82-11.48,6.28-22.87,10.41-33.94c8-21.43,17.95-42.07,30.98-60.86
	c9.67-13.94,20.71-27.12,36.78-34.43c16.75-7.63,33.7-8.96,49.64,1.69c17.32,11.57,28.8,28.02,37.02,47.03
	c9.23,21.35,15.01,43.64,16.97,66.66c1.85,21.82,2.85,43.8,2.57,65.7c-0.45,36.02-2.97,71.98-8.56,107.61
	c-3.09,19.67-7.15,39.19-10.74,58.78C383.51,437.82,383.67,438.88,383.67,441.71z M336.91,717.48c0.38,0.33,0.76,0.65,1.14,0.98
	c1.25-0.84,2.81-1.43,3.69-2.55c9.35-11.8,22.41-18.38,35.84-23.43c11.16-4.2,23.22-6.29,35.06-8.24c9.87-1.62,20-2.25,30.02-2.26
	c11.47-0.02,23.1,0.16,34.36,2.05c10.88,1.83,21.34,6.05,32.06,8.96c1.9,0.52,4.48,0.37,6.17-0.54c4.65-2.52,9.17-5.37,13.41-8.53
	c12.6-9.38,24.88-19.2,37.6-28.42c28.53-20.69,53.86-44.95,77.54-70.83c15.12-16.53,29.34-34.06,42.42-52.24
	c8.49-11.8,14.15-25.63,21.17-38.51c6.26-11.49,9.15-23.8,8.44-36.8c-0.17-3.14-1.7-6.79-3.8-9.13c-5.4-6.03-12.62-8.3-20.72-8.11
	c-28.67,0.66-53.87,11.84-78.23,25.6c-13.43,7.58-25.83,16.5-35.78,28.46c-4.89,5.88-9.96,11.66-14.31,17.93
	c-8.72,12.57-16.46,25.84-25.59,38.1c-15.05,20.21-30.64,40.03-46.46,59.65c-8.47,10.5-17.68,20.45-27.02,30.19
	c-3.35,3.5-7.99,8.3-13.3,4.57c-4.6-3.24-2.81-9.02-1.4-13.76c4.18-13.98,11.23-26.65,19.86-38.18
	c11.92-15.91,24.4-31.48,37.55-46.38c11.45-12.97,23.77-25.24,36.44-37.04c13.01-12.13,26.78-22.93,36.16-38.93
	c12.06-20.58,24.25-41.05,35.16-62.27c4.5-8.75,9.07-17.46,13.62-26.18c3.85-7.4,8.07-14.63,11.49-22.23
	c5.68-12.61,10.42-25.65,16.32-38.15c10.11-21.44,16.25-43.78,17.35-67.47c0.09-1.85-0.36-3.72-0.61-6.03
	c-1.98,0.67-3.34,0.81-4.31,1.5c-4.89,3.47-9.87,6.87-14.48,10.7c-22.59,18.71-45.48,37.09-67.45,56.5
	c-16.24,14.34-31.42,29.9-46.71,45.27c-10.02,10.08-19.74,20.5-28.97,31.3c-8.28,9.7-15.77,20.1-23.49,30.28
	c-4.63,6.11-10.21,11.87-13.26,18.73c-6.9,15.46-12.2,31.63-18.69,47.29c-8.45,20.39-17.24,40.64-26.26,60.78
	c-4.48,9.99-9.84,19.59-14.74,29.4c-7.59,15.19-14.73,30.62-22.79,45.55c-9.01,16.68-18.69,33-28.35,49.32
	c-7.13,12.06-14.7,23.87-22.03,35.81C339.54,712.54,338.27,715.03,336.91,717.48z M1140.43,776.69c0.12-0.77,0.24-1.54,0.36-2.31
	c-2.74-1.09-5.39-2.58-8.24-3.21c-23.35-5.1-46.59-11.01-70.16-14.75c-23.06-3.65-46.45-5.51-69.76-7.28
	c-22.41-1.7-44.9-2.78-67.37-3.2c-31.27-0.59-62.55-0.35-93.82-0.42c-10.74-0.02-21.57-0.78-32.21,0.33
	c-14.84,1.54-29.54,4.47-44.57,2.93c-0.86-0.09-1.77,0.3-2.65,0.51c-4.01,0.94-7.98,2.23-12.05,2.76
	c-6.16,0.8-12.42,0.84-18.58,1.61c-25.04,3.13-50.06,6.32-75.07,9.69c-14.85,2-29.67,4.24-44.47,6.62
	c-11.72,1.88-23.43,3.95-35.04,6.39c-1.75,0.37-4,3.08-4.26,4.95c-0.74,5.23-0.42,10.59-0.78,15.89c-0.27,3.92,1.53,5.46,5.17,5.17
	c13.06-1.03,26.14-1.85,39.15-3.26c20.11-2.18,40.14-5.18,60.27-7.08c21.31-2.02,42.69-3.3,64.06-4.67
	c24.61-1.58,49.23-3.08,73.87-4.29c20.45-1,40.91-1.68,61.38-2.22c20.84-0.55,41.7-0.77,62.55-1.11
	c17.74-0.29,35.48-0.64,53.22-0.77c12.03-0.09,24.06,0.41,36.09,0.2c14.59-0.25,29.18-1.26,43.77-1.42
	c24.34-0.27,48.69-0.1,73.03-0.18C1136.35,777.56,1138.39,777,1140.43,776.69z M548.16,826.13c-0.63-0.35-1.25-0.7-1.88-1.04
	c-6.55,3.14-13.6,5.54-19.54,9.57c-11.28,7.65-22,16.13-32.81,24.46c-17.41,13.42-31.72,29.82-43.52,48.21
	c-17.32,26.99-32.2,55.27-40.43,86.54c-3.21,12.19-6.69,24.43-8.45,36.87c-2,14.18-3.89,28.62,3.19,42.46
	c4.87,9.53,11.91,11.58,20.79,5.59c10.55-7.13,17.91-17.09,25.34-27.03c5.12-6.86,10.51-13.62,14.85-20.97
	c7.22-12.2,13.97-24.71,20.41-37.34c8.04-15.76,15.79-31.68,23.24-47.73c4.98-10.75,9.36-21.79,13.74-32.81
	c3.85-9.68,7.89-19.34,10.87-29.3c4.7-15.73,8.64-31.69,12.76-47.6C547.55,832.79,547.7,829.42,548.16,826.13z M362.53,787.35
	c0.14,0.88,0.29,1.76,0.43,2.64c6.8,2.54,13.55,5.2,20.4,7.59c15.64,5.46,30.92,0.07,46.03-2.54c25.73-4.44,51.2-10.35,76.79-15.61
	c12.88-2.65,25.81-5.1,38.63-8.03c1.86-0.42,4.76-3.26,4.57-4.6c-3.36-23-11.27-43.64-31.21-57.81c-4.3-3.06-7.62-2.56-11.95,0.05
	c-23.63,14.24-47.14,28.73-71.27,42.07c-20.45,11.31-41.69,21.21-62.6,31.7C369.13,784.41,365.81,785.84,362.53,787.35z
	 M333.63,748.85c1.15,4.98,2.36,9.38,3.15,13.86c1.39,7.84,7.95,11.92,12.55,17.36c0.88,1.04,3.98,0.95,5.72,0.38
	c3.76-1.25,7.31-3.15,10.95-4.79c11.97-5.39,24.12-10.4,35.85-16.26c13.71-6.84,27.08-14.35,40.53-21.71
	c10.05-5.5,20.09-11.03,29.94-16.88c8.29-4.93,16.35-10.25,24.35-15.62c1.31-0.88,2.26-2.88,2.5-4.49c0.11-0.74-1.79-2.34-3-2.61
	c-10.13-2.33-20.21-5.52-30.48-6.4c-27.62-2.37-54.99-1.65-81.8,7.42c-20.35,6.89-36.27,18.44-46.15,37.65
	C335.77,740.59,334.91,744.99,333.63,748.85z M447.01,481.22c-0.75-0.35-1.5-0.7-2.26-1.06c-5.58,8.11-11.43,16.05-16.65,24.39
	c-4.53,7.24-8.26,14.98-12.48,22.42c-5.02,8.85-10.34,17.54-15.23,26.45c-2.44,4.45-3.98,9.39-6.37,13.88
	c-8.83,16.6-17.91,33.06-26.76,49.64c-9.62,18.03-19.19,36.09-28.56,54.25c-8.04,15.58-16.01,31.21-23.48,47.07
	c-2.67,5.67-3.79,12.06-5.62,18.13c0.61,0.31,1.23,0.63,1.84,0.94c1.33-1.31,2.95-2.42,3.96-3.94c9.8-14.76,20.05-29.25,29.09-44.47
	c14.46-24.32,28.44-48.94,41.95-73.8c9.22-16.97,17.35-34.54,25.88-51.88c3.37-6.84,6.69-13.72,9.72-20.72
	c6.82-15.71,13.51-31.46,20.1-47.27C444.05,490.7,445.4,485.91,447.01,481.22z M363.18,477.69c-0.72-0.38-1.45-0.76-2.17-1.14
	c-4.84,5.08-10.26,9.72-14.39,15.32c-10.39,14.1-20.37,28.5-30.17,43.02c-7.88,11.68-12.04,24.94-14.13,38.73
	c-0.49,3.22-2.53,9.06,2.26,9.88c2.96,0.51,8-2.93,9.92-5.98c9.83-15.59,19.74-31.22,28.09-47.62c6.82-13.41,11.53-27.9,17.09-41.94
	C361.02,484.6,362.03,481.11,363.18,477.69z M433.55,803.43c-0.07,0.45-0.13,0.9-0.2,1.34c1.35,0.65,2.67,1.78,4.04,1.86
	c6.35,0.35,12.72,0.64,19.08,0.52c19.71-0.37,39.42-0.85,59.13-1.47c8.4-0.26,16.83-0.54,25.16-1.55
	c10.64-1.28,10.57-1.61,10.76-12.08c0.04-2.37,0.46-4.74,0.51-7.11c0.08-3.79-1.24-5.85-5.64-4.96c-9.84,2-19.77,3.53-29.59,5.59
	c-24.65,5.19-49.25,10.57-73.88,15.87C439.8,802.12,436.67,802.77,433.55,803.43z M543.04,521.33c-1.47,1.08-3.1,1.99-4.37,3.26
	c-4.24,4.29-8.32,8.74-12.52,13.07c-22.05,22.74-43.05,46.33-58.86,73.99c-2.64,4.62-4.03,9.95-6.38,15.94
	C469.97,625.16,539.44,535.54,543.04,521.33z M336.29,799.99c5.23,4.5,26.01,5.15,30.27,0.95
	C356.73,791.6,344.59,791.22,336.29,799.99z"/>
<path d="M816.86,636.1c-24.35-13.84-46.93-8.61-68.74,3.01c-9.56,5.09-18.13,11.98-24.5,22.74c3.76-1.07,6.4-2.21,9.13-2.49
	c3.01-0.31,6.28-0.41,9.12,0.45c5.99,1.83,6.74,5.02,5.16,11.03c-2.89,10.98-12.17,14.94-20.69,19.49
	c-5.2,2.78-10.91,4.48-17.36,3.42c-4.14-0.68-4.97-2.31-5.34-5.9c-1.65-16.06,6.07-28.23,16.44-39.02
	c18.89-19.65,41.88-31.01,69.44-31.15c11.05-0.06,22.48,0.4,30.9,9.82c2.49,2.78,5.46,1.92,8.29-0.35
	c8.3-6.69,17.39-11.86,28.06-13.82c9.63-1.77,19.22-3.8,28.86-5.48c8.32-1.46,16.06,0.87,23.15,4.96
	c7.92,4.56,12.4,20.11,8.69,29.83c-1.73,4.55-4.26,8.81-6.56,13.14c-2.52,4.72-1.73,6.05,3.61,6.28c14.57,0.61,29.14,1.2,43.7,2.06
	c4.28,0.25,6.21-2.09,7-5.44c0.7-2.94,0.58-6.11,0.57-9.18c-0.02-6.92,0.19-13.87-0.42-20.74c-0.46-5.19-1.84-10.35-3.21-15.41
	c-1.46-5.42-3.49-10.69-5.05-16.09c-0.43-1.47-0.06-3.18,1.21-5.71c1.8,1.68,4.46,3.03,5.26,5.1c5.55,14.32,11.07,28.67,10.92,44.45
	c-0.07,7.75,1.23,15.6,0.4,23.24c-0.87,8.03-6.98,10.57-15.41,10.03c-15.79-1.02-31.66-1.8-47.45-1.25
	c-10.53,0.36-19.74,5.44-27.77,12.77c-5.72,5.22-12.47,9.34-18.86,13.81c-1.3,0.91-3,1.38-4.59,1.74c-4.7,1.07-11.2,2.34-12.76-2.32
	c-1.27-3.8,1.12-10.61,4.25-13.71c5.18-5.12,12.03-8.76,18.6-12.2c5.56-2.91,12.5-3.58,17.42-7.18c5.26-3.84,8.66-10.13,13.24-15
	c4.96-5.29,5.19-12.02,5.35-18.33c0.2-8.19-5.66-14.1-14.75-14.44c-21.69-0.81-42.12,3.5-58.77,18.7c-1.39,1.27-1.34,4.9-0.9,7.24
	c1.28,6.78,3.74,13.39,4.56,20.2c1.62,13.55-5.35,28.7-21.69,33.13c-6.94,1.88-13.97-1.26-15.32-8.31
	c-3.03-15.8-2.27-30.94,9.87-43.5C812.71,642.78,814.72,639.1,816.86,636.1z M825.94,667.74c-1.01-6.09-1.44-10.3-2.48-14.35
	c-0.87-3.38-3.23-4.68-6-1.74c-7.74,8.18-11.59,17.8-8.97,29.07c0.55,2.37,3.13,5.32,5.34,5.91c1.75,0.47,5.41-1.75,6.37-3.69
	C822.81,677.64,824.44,671.87,825.94,667.74z M722.45,663.64c-5.73,4.04-6.48,9.72-7.34,15.23c-0.1,0.64,2.46,2.54,2.92,2.28
	c3.45-1.92,6.99-3.92,9.72-6.67c0.6-0.61-1.91-4.34-3.02-6.61C724.1,666.6,723.39,665.38,722.45,663.64z"/>
<path d="M1266.17,666.11c4.57-1.5,17.38,3.72,18.95,7.72c1.32,3.36-0.96,6.41-6.07,7.27c-6.84,1.15-13.79,1.71-20.64,2.79
	c-12.07,1.92-24.13,3.93-36.15,6.11c-20.97,3.79-41.85,8.17-62.9,11.41c-8.7,1.34-10.23-0.61-9.25-9.35
	c0.63-5.61,3.2-10.99,4.79-16.51c2.93-10.12,6.48-20.14,8.41-30.45c1.31-6.99-5.21-10.55-13.61-7.02
	c-11.99,5.05-23.18,11.72-31.63,22.04c-0.96,1.18-1.66,2.92-1.73,4.43c-0.54,13.18-7.05,23.44-15.85,32.51
	c-4.02,4.14-9.18,5.36-14.65,3.56c-1.47-0.48-3.7-3.25-3.39-3.86c3.05-6.05-0.74-14.95,7.68-18.75c0.55-0.25,0.8-1.18,1.19-1.8
	c2.93-4.68,5.42-9.72,8.88-13.96c4.65-5.69,4.21-9.2-2.54-12.11c-0.34-0.14-0.7-0.23-1.03-0.37c-11.31-4.84-12.76-3.93-17.99,6.87
	c-8.79,18.15-19.51,35.11-35.62,47.73c-4.06,3.18-9.63,5.39-14.76,6.03c-6.3,0.78-10.06-2.69-11.02-9.04
	c-1.79-11.79-2.78-23.62,2.14-35.11c0.84-1.97,0.38-4.56,0.28-6.85c-0.11-2.34-1.29-4.91-0.66-6.97
	c4.28-14.1,9.35-27.86,20.63-38.22c6.13-5.63,11.7-12.09,18.53-16.69c9.6-6.45,18.04-2.98,23.78,7.31
	c4.37,7.84,5.13,16.14,5.76,24.7c0.14,1.85,1.69,4.66,3.21,5.17c7.51,2.53,14.54,5.6,20.47,11.13c1.09,1.02,4.45,0.68,6.15-0.21
	c9.95-5.23,19.44-11.45,29.67-16.02c5.23-2.33,11.72-2.69,17.59-2.51c6.47,0.19,10.73,8.31,10.33,16.46
	c-0.64,12.83-5.99,24.31-9.68,36.29c-0.86,2.77-1.73,7.79-0.59,8.48c2.52,1.54,6.43,1.69,9.57,1.17
	c14.57-2.42,29.06-5.34,43.61-7.92c12.18-2.15,24.41-4.07,36.62-6.08c1.26-0.21,2.54-0.34,3.81-0.41
	C1267.27,674.61,1267.27,674.62,1266.17,666.11z M1041.4,663.28c0.22,0.66,0.43,1.33,0.65,1.99c-3.69,1.42-7.4,2.79-11.05,4.28
	c-1.73,0.71-4.09,1.22-4.91,2.58c-4.33,7.18-4.16,15.07-1.9,22.75c1.63,5.54,7.58,7.24,11.87,3.91c2.87-2.23,5.95-4.47,8.04-7.35
	c7.01-9.66,13.78-19.5,20.31-29.49c2.76-4.22,4.74-8.96,6.95-13.52c1.47-3.02-0.19-4.21-2.95-3.92c-9.9,1.04-19.34,3.37-27.14,10.16
	C1035.74,659.48,1035.68,659.68,1041.4,663.28z M1028.72,646.9c0.59,0.49,1.18,0.98,1.77,1.46c0.69-0.06,1.56,0.13,2.05-0.22
	c11.84-8.24,24.85-12.89,39.35-13.54c1.33-0.06,3.7-2.93,3.59-4.34c-0.42-5.37-1.01-10.9-2.74-15.96
	c-3.14-9.2-10.26-10.19-16.89-2.89c-5.15,5.66-10.76,10.96-15.4,17.01C1036.02,634.19,1032.59,640.71,1028.72,646.9z"/>
<path d="M878.35,552.94c-4.45-1.61-8.85-3.37-13.37-4.77c-2.61-0.81-5.38-1.12-8.11-1.48c-1.05-0.14-2.27,0.57-3.23,0.3
	c-2.8-0.81-6.8-1.15-7.98-3.1c-1.91-3.14,0.19-6.3,3.21-8.88c1.43-1.22,2.43-4.6,1.8-6.34c-4.86-13.44-2.39-22.58,9.41-30.72
	c13.12-9.04,27.59-11.01,42.81-6.72c9.62,2.71,13.61,12.98,9.03,21.96c-7.7,15.09-21.98,20.98-36.64,26.41
	c-1.7,0.63-3.15,1.94-4.72,2.94c1.06,1.56,1.92,3.31,3.22,4.63c1.58,1.62,3.52,2.89,5.31,4.31
	C878.84,551.97,878.6,552.45,878.35,552.94z M868.98,530.24c5.38-1.99,10.66-3.09,14.98-5.76c5.74-3.54,11.26-7.78,15.86-12.68
	c3.46-3.69,1.65-8.95-3.16-10.59c-13.07-4.45-28.68-0.35-35.97,11.97c-2.81,4.74-1.57,9.81,1.27,13.97
	C863.13,528.88,866.4,529.18,868.98,530.24z"/>
<path d="M682.09,187.06c-18.89,0.87-32.75-8.5-31.86-24.27c0.31-5.55,2.12-10.47,8-13.17c7.2-3.31,14.05-7.36,21.13-10.93
	c1.75-0.88,3.87-1.66,5.74-1.53c1.75,0.13,3.4,1.54,5.1,2.39c-0.95,1.32-1.61,3.18-2.9,3.88c-5.63,3.06-11.66,5.43-17.1,8.76
	c-3.47,2.13-6.72,5.12-9.08,8.42c-2.85,3.99-0.8,8.98,3.28,11.71c7.96,5.32,16.62,4.69,24.84,2.11c7.23-2.27,14.09-6.06,20.7-9.9
	c5.91-3.43,5.63-7.53,1.2-12.42c-2.07-2.28-4.03-6.43-3.32-8.96c0.71-2.51,4.58-4.96,7.53-5.84c5.59-1.67,10.91-0.21,14.79,4.6
	c4.33,5.37,4.05,11.01,0.98,16.89c-4.32,8.27-11.16,14.29-19.06,18.44C701.2,182.94,689.39,186.39,682.09,187.06z"/>
<path d="M1210.39,597.33c3.93-5.54,7.64-7.69,13.3-7.15c12.77,1.23,21.05,8.74,27.26,18.96c4.33,7.13,0.02,16.51-8.63,19.36
	c-11.99,3.95-24.18,6.16-36.64,2.12c-10.07-3.26-19.02-8.06-24.3-17.91c-1.22-2.28-3.1-4.2-4.68-6.29c0.4-0.45,0.81-0.9,1.21-1.35
	c1.21,0.84,2.42,1.68,3.63,2.52c2.75,1.93,5.45,3.94,8.26,5.77c1.64,1.07,3.76,1.54,5.16,2.83c7.16,6.55,15.53,8.48,24.9,7.09
	c5.49-0.81,11.07-1.3,16.44-2.61c3.41-0.83,4.31-3.64,2.48-6.95c-3.81-6.92-8.44-12.85-16.84-14.37
	C1218.46,598.72,1214.95,598.13,1210.39,597.33z"/>
</svg>
